<svg width="167" height="144" viewBox="0 0 167 144" fill="none" xmlns="http://www.w3.org/2000/svg">
<g clip-path="url(#clip0_18727_539)">
<path d="M166.48 0H0V96.24L83.25 144L166.48 96.25V0Z" fill="black"/>
<path d="M4.37001 4.22998H4.21001L4.20001 93.78L83.18 139.18L83.21 139.2H83.32L162.15 93.82L162.23 93.78V4.27998L4.37001 4.22998Z" fill="white"/>
<path d="M157.85 8.44995H8.59003V56.93H157.85V8.44995Z" fill="#008340"/>
<path d="M8.59003 61.17V91.29L83.26 134.18L157.85 91.31V61.17H8.59003Z" fill="#E4002A"/>
<path d="M45.01 51.2301V21.9701H60.5V14.1801H18.52V21.9701H34.01V51.2301H45.01Z" fill="white"/>
<path d="M146.13 50.54C137.7 52.17 126.85 52.65 119.01 49.55C112.32 47.03 108.2 41.02 107.35 35.14C106.46 27.92 109.62 21.59 116.34 17.35C124.18 12.52 136.62 12.69 145.17 16.04V24.09C138.7 21.54 128.97 19.33 122.76 23.38C118.3 26.32 116.93 30.98 118.04 35.64C118.93 39.32 122.61 42.64 126.7 43.86C129.6 44.66 133.16 44.92 136.39 44.56V38.57H132.12V31.37H146.12V50.53L146.13 50.54Z" fill="white"/>
<path d="M71.1 43.9501L67.39 51.2201H56.18L74.39 14.1801H86.96L105.51 51.2301H94.27L90.38 43.9501H71.1ZM80.8 23.3701L74.13 36.4101H87.04L80.79 23.3701H80.8Z" fill="white"/>
<path d="M95.42 119.75V66.94C95.42 66.79 95.3 66.67 95.14 66.67H89.75C89.6 66.67 89.47 66.8 89.47 66.94V116.53L83.24 119.94L76.98 116.53V66.94C76.98 66.79 76.85 66.67 76.7 66.67H71.31C71.24 66.67 71.17 66.7 71.12 66.75C71.07 66.8 71.04 66.88 71.04 66.95V119.76C71.04 119.86 71.1 119.95 71.18 120L83.1 126.84C83.18 126.89 83.29 126.89 83.38 126.84L95.28 120C95.37 119.95 95.42 119.86 95.42 119.76" fill="white"/>
<path d="M62.33 114.91C62.42 114.96 62.51 114.96 62.59 114.91C62.68 114.86 62.73 114.77 62.73 114.67V108.95C62.73 108.85 62.67 108.75 62.59 108.71L51.18 102.48V88.66L61.42 91.27C61.5 91.27 61.62 91.15 61.62 90.99V85.35C61.62 85.24 61.49 85.12 61.36 85.08L51.18 82.82V71.85H62.48C62.62 71.85 62.74 71.73 62.74 71.57V66.94C62.74 66.78 62.62 66.67 62.48 66.67H45.71C45.56 66.67 45.45 66.79 45.45 66.94V105.01C45.45 105.11 45.5 105.21 45.59 105.26L62.35 114.92L62.33 114.91Z" fill="white"/>
<path d="M122.21 104.34V99.1801C122.21 99.0801 122.16 98.9901 122.07 98.9401C121.98 98.8801 121.88 98.8801 121.8 98.9401L110.6 105.06V89.8601L121.03 87.1901C121.16 87.1601 121.24 87.0501 121.24 86.9201V81.8701C121.24 81.7901 121.2 81.7101 121.13 81.6501C121.08 81.6101 121.02 81.59 120.96 81.59L110.6 83.8701V71.8601H121.92C122.07 71.8601 122.19 71.7301 122.19 71.5801V66.9501C122.19 66.8001 122.07 66.6801 121.92 66.6801H105.18C105.02 66.6801 104.9 66.8001 104.9 66.9501V114C104.9 114.1 104.96 114.19 105.04 114.24C105.12 114.29 105.23 114.3 105.32 114.24L122.06 104.61C122.15 104.56 122.2 104.47 122.2 104.37" fill="white"/>
<path d="M31.31 97.08L35.94 99.76C36.03 99.81 36.13 99.8 36.22 99.76C36.31 99.71 36.36 99.62 36.36 99.52V66.95C36.36 66.79 36.23 66.67 36.09 66.67H31.46C31.31 66.67 31.19 66.79 31.19 66.95V78.44L20.04 75.99V66.96C20.04 66.8 19.92 66.68 19.76 66.68H15.19C15.12 66.68 15.05 66.71 15 66.76C14.95 66.82 14.92 66.89 14.92 66.96V87.56C14.92 87.66 14.98 87.75 15.06 87.8L19.62 90.4C19.71 90.45 19.81 90.45 19.9 90.4C19.98 90.35 20.04 90.26 20.04 90.16V80.72L31.19 83.57V96.87C31.19 96.97 31.24 97.06 31.33 97.11" fill="white"/>
<path d="M130.98 99.31C131.06 99.36 131.17 99.37 131.26 99.31L136.04 96.6L136.07 96.55V83.36L138.86 82.63L147.08 89.98C147.16 90.09 147.32 90.13 147.44 90.05L151.62 87.62C151.69 87.58 151.74 87.52 151.76 87.44C151.76 87.38 151.76 87.32 151.74 87.27L144.56 81.18L149.64 79.88C151.33 79.45 151.59 78.66 151.57 76.94V68.58C151.35 67.36 150.46 66.66 149.2 66.66C149.12 66.66 149.05 66.66 149.01 66.66H131.1C130.96 66.66 130.82 66.83 130.82 66.99V99.07C130.82 99.16 130.88 99.25 130.96 99.3M136.07 71.85H145.78C146.21 71.85 146.56 72.2 146.56 72.63V75.1C146.56 75.67 146.45 75.97 145.73 76.14L136.07 78.26V71.85Z" fill="white"/>
</g>
<defs>
<clipPath id="clip0_18727_539">
<rect width="166.48" height="144" fill="white"/>
</clipPath>
</defs>
</svg>
